<?xml version="1.0" encoding="UTF-8"?>
<svg id="Layer_2" data-name="Layer 2" xmlns="http://www.w3.org/2000/svg" width="121.53" height="139.26" viewBox="0 0 121.53 139.26">
  <defs>
    <style>
      .cls-1 {
        fill: #808083;
        stroke-width: 0px;
      }
    </style>
  </defs>
  <g id="bg">
    <g>
      <path class="cls-1" d="m119.92,111.47c.13-.04-.13-.37-.15-.44-.14.19.21.53.15.44Z"/>
      <polygon class="cls-1" points="118.58 113.39 118.52 113.23 118.47 113.75 118.58 113.39"/>
      <path class="cls-1" d="m116.85,114.43c.53.51.56-.48,1-.44l.13.11-.16-.57c-.33.3-.61.92-.98.91Z"/>
      <path class="cls-1" d="m115.14,113.66c.2.2-.07.32.26-.05-.04-.01-.05-.02-.08-.04-.03.03-.09.06-.18.09Z"/>
      <path class="cls-1" d="m115.32,113.57c.17-.13-.24-.13,0,0h0Z"/>
      <path class="cls-1" d="m114.57,114.21l.11-.36c-.13-.11-.37-.01-.35-.16-.17.26-.04.37.24.52Z"/>
      <path class="cls-1" d="m114.61,114.8l.07-.16c-.06-.05-.1-.05-.07.16Z"/>
      <path class="cls-1" d="m114.83,114.28l-.15.35c.09.08.22.27.08-.14.09.19.03-.01.07-.21Z"/>
      <path class="cls-1" d="m115.03,114.29c.21.05.44.03.33.39.41-.36.08-.75-.33-.39Z"/>
      <path class="cls-1" d="m117.15,115.11l.29.07.03-.3c-.02.15-.44.04-.32.23Z"/>
      <path class="cls-1" d="m112.89,114.8c.06.14.29.3.41.45l.09-.26c-.14-.03-.37-.01-.49-.2Z"/>
      <path class="cls-1" d="m113.3,115.25l-.13.38c.25-.12.23-.25.13-.38Z"/>
      <polygon class="cls-1" points="114.98 115.5 115.13 114.77 114.9 115.56 114.98 115.5"/>
      <polygon class="cls-1" points="111.87 115.39 111.84 115 111.85 115.61 111.87 115.39"/>
      <path class="cls-1" d="m111.24,115.85c-.04-.32-.41-.33-.38-.55-.15.15-.18.46-.2.74.08-.2.26-.27.59-.18Z"/>
      <path class="cls-1" d="m110.59,116.45c.04-.1.05-.26.06-.42-.04.11-.07.23-.06.42Z"/>
      <path class="cls-1" d="m112.68,115.84c-.07-.07-.23-.25-.43-.25l.32.3s.07-.04.11-.06Z"/>
      <path class="cls-1" d="m112.59,115.91h-.01c-.12.05-.2.09-.24.11.03-.01.11-.04.25-.11Z"/>
      <path class="cls-1" d="m112.71,115.83h-.03s.05.05.03,0Z"/>
      <path class="cls-1" d="m114.09,115.59c-.03.3-.22.71.28.84-.04-.32-.33-.39-.28-.84Z"/>
      <path class="cls-1" d="m113.11,116.21l.33-.09c-.06-.09-.2-.2-.18-.35l-.15.44Z"/>
      <polygon class="cls-1" points="113.05 116.4 113.11 116.21 112.99 116.24 113.05 116.4"/>
      <path class="cls-1" d="m111.27,116.51c-.02.23-.15.33-.28.44.2-.02.39-.09.55-.18-.05-.13-.1-.38-.27-.26Z"/>
      <path class="cls-1" d="m111.93,116.25v.04s.04.02,0-.04Z"/>
      <polygon class="cls-1" points="109.52 117.84 109.58 117.89 109.55 117.82 109.52 117.84"/>
      <path class="cls-1" d="m111.61,116.82c.16,0,.18-.14.18-.29-.07.09-.15.17-.25.24.02.06.04.09.07.05Z"/>
      <path class="cls-1" d="m110.28,116.87c.11.04.22.06.33.07-.13-.08-.37-.18-.33-.07Z"/>
      <path class="cls-1" d="m111.82,116.21v-.03c-.08-.05-.05-.02,0,.03Z"/>
      <path class="cls-1" d="m111.82,116.21c-.03.09-.02.21-.02.32.06-.07.1-.15.13-.24-.03-.02-.07-.05-.1-.08Z"/>
      <path class="cls-1" d="m110.49,120.45c-.18-.35-.06-.86.44-.66.12-.42-.74-1.42-1.35-1.91.08.15.16.29,0,.66.21.13.88.06.83.51-.26.4-.37.06-.66,0,.41.33-.09.9.36,1.47l.19-.41c.06.09.04.32.18.35Z"/>
      <path class="cls-1" d="m110.13,117.6l.09-.11c-.17.02-.34-.06-.67-.22-.09.28-.05.43,0,.55l.59-.29v.07Z"/>
      <path class="cls-1" d="m110.73,117.18c.13.42-.04.74.36,1.04.32-.23.05-.45.15-.73-.48.42.03-.3-.49-.27.07-.13.15-.2.23-.27-.12.01-.25.02-.38,0l.03.02h0s0,0,0,0c.05.03.08.06.03.04,0,0,0,.01,0,.01.03.05.04.1.06.15-.2.02-.08-.08-.06-.15l-.03-.06h0s-.42.53-.42.53c.15-.02.28-.12.51-.31Z"/>
      <path class="cls-1" d="m114.56,117.39s-.05-.05-.07-.08c0,.07,0,.11.07.08Z"/>
      <path class="cls-1" d="m114.2,117.3c0-.08-.05-.24.1-.28.18.04.11.18.19.29.02-.14.11-.43-.24-.46v.07c-.3,0-.86-.29-.85-.36.26.29.46.5.8.73Z"/>
      <path class="cls-1" d="m112.51,117.35l-.34.45.42.18-.13-.18c.3-.08.1-.28.05-.45Z"/>
      <polygon class="cls-1" points="109.36 117.68 109.18 117.26 109.25 117.97 109.36 117.68"/>
      <polygon class="cls-1" points="108.8 118.08 108.62 117.73 108.59 118.03 108.8 118.08"/>
      <path class="cls-1" d="m79.24,130.09l-.15-.12c.05.06.1.1.15.12Z"/>
      <path class="cls-1" d="m79.49,131.19l.2-.02c-.12-.02-.2-.03-.2.02Z"/>
      <path class="cls-1" d="m94.47,126.81c-.38-.2-.9-.56-.64-.19l.28.34c.09-.15.22-.17.36-.14Z"/>
      <path class="cls-1" d="m85.93,135.01l.07.11c.04-.2.07-.38.1-.55-.05.13-.1.28-.17.43Z"/>
      <path class="cls-1" d="m85.8,137.18c-.13-.03-.25-.07-.36-.11.08.07.19.11.36.11Z"/>
      <path class="cls-1" d="m77.33,124.27l-.47-.07c.07.27.26.1.47.07Z"/>
      <path class="cls-1" d="m102.9,121.84c-.25-.04-.42-.03-.55.03.33.09.68.31.55-.03Z"/>
      <path class="cls-1" d="m83.82,129.42c-.1-.07-.19-.09-.29-.06.1.08.19.11.29.06Z"/>
      <path class="cls-1" d="m101.87,122.16c.05.02.09.02.14.03.08-.14.18-.26.34-.33-.24-.07-.47-.06-.48.29Z"/>
      <path class="cls-1" d="m72.37,102.68s.02-.04.04-.06c-.06,0-.06.03-.04.06Z"/>
      <path class="cls-1" d="m75.07,95.36c.04.06.07.16.1.25.02-.05,0-.13-.1-.25Z"/>
      <path class="cls-1" d="m106.35,119.35c.11-.1,0-.05,0,0h0Z"/>
      <path class="cls-1" d="m107.84,120.45c0,.06.01.12.06.21-.04-.1-.06-.16-.06-.21Z"/>
      <path class="cls-1" d="m102.03,125.22h-.01c.08.06.07.05.01,0Z"/>
      <path class="cls-1" d="m106.64,119.4c-.07-.02-.15-.02-.23-.01.04.01.11.02.23.01Z"/>
      <path class="cls-1" d="m106.51,119.24c.05-.01.09-.02.13-.03-.02-.07-.06-.1-.13.03Z"/>
      <path class="cls-1" d="m106.19,119.47c.07-.05.14-.07.22-.08-.04-.01-.06-.02-.06-.04-.03.03-.08.06-.16.12Z"/>
      <path class="cls-1" d="m76.34,113.92s.02-.03.03-.04c-.21-.1-.17-.04-.03.04Z"/>
      <path class="cls-1" d="m93.57,132.62s0-.02,0-.03h-.03s.02.03.02.03Z"/>
      <path class="cls-1" d="m93.3,133.16c-.09-.58.05-.59.26-.57l-.8-.98.54,1.56Z"/>
      <path class="cls-1" d="m78.48,127.52l-.29.45c-.73-.27-.59-.64-1.04-.17,1.33-.28.48,1.35,1.81,1.07l-.22.3c0-.07-.08-.06-.09-.13-.52.61,1.04.1.99.74-.05.23-.21.42-.4.32l.44.37c0,.14-.23.16-.24.02l.28.67h-.04c.23.05.61.2.77.27-.15.22-.16-.05-.32.03l.41.31c-.14.16-.33.12-.47.06-.14-.06-.25-.19-.26-.33-.61.34-.51.4-.33.5.2.15.49.37.27,1.16l-.31-.55c-.63.68-.24,1.1-.47,2.14.09-.17.26-.73.49-1.12.22-.4.5-.63.74-.38-.05.23-.03.52.3.71-.43.28-.23.58-.1,1l-.55.42c.29.4.55.1.86.15.08.57-.29,1.14-.59,1.68.08.54.19.17.34-.19.14-.36.32-.7.49-.26-.01.96.32,1.24.78,1.51-.04.77-.29.45-.38.87.16-.08.31-.18.46-.28.02.12-.1.31-.15.41.22.07.44-.89.68-.65.07-.13.11-.18.13-.16.15-.15.19.14.35.27.15.14.42.12.8-.51.07.17-.22.59-.28.91.53-.63.72-.85.91-1.11.18-.25.36-.52.71-1.15.14.08.3.14.47.2-.35-.35.21-1.35.49-2.07-.11-.2-.19-.39-.24-.48.15-.22.28-.44.4-.65.06.09.05.35,0,.69.02-.08.05-.15.07-.22.19.16.18.6.06,1.09-.08-.1-.16-.21-.23-.32-.1.52-.26,1.11-.22,1.53.04-.11.13-.24.22-.33-.04.15-.06.27-.04.33.03.06.1-.14.19-.39.07.24.14.47.22.7v-.34c.34-.03.7-.07,1.08-.12.26-.58.41-1.19.55-1.73.15-.55.2-.97.51-1.33.09.56.4.75.71,1.29-.27-.22-.38-.07-.47.14-.05.11-.08.22-.17.35-.1.13-.22.24-.38.3.32-.11.4.18.37.32.32-.42.34-.67.49-1,.25.44.34.24.63.31-.65-.77.16-.88.28-1.31.19.28.3.61-.08.75.77.42-.12-1.3.57-.97-.08.06-.15.04-.09.21.04-.37.64-.46.68-.14l-.08.06c.61-.23,1.68-1.01,1.32-1.79.06.09.46.92.51,1.09l-.5-3.04c.29.68,1.52,1.96,1.28,2.59.18,0,.41.02.55-.37-.14-.03-.77-.77-.68-.9.76.49.46.23,1.23.57-.22-.05-.66-1.12-.43-1.22.06.17.6.96.59,1.11l-.05-1.28c-.03.25.47.83.75,1.03-.17-.16.47-.26.55-.44l-.36-.09c.68-.22-.23-1.71.39-2.02.05.24.56,1.33.94,1.27-.16-.58-.83-2.74-.53-3.43l.27.22.21-.56c.2.89.44,2.88.43,3.72.36.09.26.29.58.07.28.19.06.51-.03.59l.88-.3c-.38-.55.24-.94-.07-1.4l-.48,1.11c-.38-.55-.5-1.93.11-2.16.28.14.51,1.09.64,1.27-.05-.24.29-.69.43-.58l-.05.45c.44.03.04-1.06.74-.74.15-.04.83.51.64.16-.6-.53-1.87-2.54-2.03-3.11.07.02,1.05.22,1.39.46.52.39.43,1.42.87,1.75-.09-.16-.09-.43-.08-.52.21.05.24.52.49.27-.3-.61.62-.31-.16-.58.18-.34.37-.06.69-.29-.33-.31-.48-1.46-.29-1.8.07.16.25.31.34.38.61-.3,1.09-.22,1.63-.55.14.11.5.12.54.44.02-.15-.03-.39.13-.51.63.31-.33.3.29.76-.18-.35.15-.73.26-1.09-.39-.48-.61.23-.72.59-.44-.72-.48-1.73-.12-2.41.34-.45.48.35.49.2.92-.39-.04-1.7.98-1.6.56.29.57.91.83,1.2-.26.4-.74.05-.98.22l.44.03c-.02.22-.2.49-.41.44.48.27,1.48-.79,2.36-.8.02-.22.13-.51-.08-.63l-.17.19c-.41-.26.08-.75-.29-.76.12-.43.18-1.03.7-1.05l.39.48c-.1-.15-.44-.16-.46.07.02-.33,1.03.35.79-.45l-.49-.2c.12-.43.13-1.2.57-1.24-.47-.42-.04.11-.66-.35.67.62-.9.5-.08,1.09-.68-.55-.62-.03-1.31-.43.11.17.32.26-.02.35.02.06.03.14.03.19-.01,0-.02,0-.03,0h.03s0,.05.01.01c.11.03.23.09.31.17.1.48-.37.75-.4,1.05-.22.02-.05-.24-.25-.37l-.05.45c-.26-.37-.84-.36-.57-.83l-.38.2c-.35-.09-.69,0-.78.28-.22.02-.18.69-.21.3l-.43.58-.06-.09c-.59.29-.78,1.34-1.84,1.04-.13.21-.26.45-.64.53l-.26-.29c-.17.26-.93.11-.83.52-.8-.73-1.3.52-1.83.62l.25.44c-.31.15-.52.45-.78.85l.25.37c-.13.51-.98.22-1.46.56-.05-.17.1-.21.24-.17-1.12-.5-.88,1.39-1.8,1.09-.05.22-.18.23-.33.19.01,0,.02-.02.02-.04-.02,0-.04.02-.06.03-.1-.03-.21-.07-.31-.09.11.06.21.1.28.11-.1.07-.23.21-.33.4l-.32-.37s-.02.02-.03.03c-.24-.06,0,.27.26.53-.04.11-.06.24-.05.37-.53-.59-.27.47-.87-.14.1.41-.62.73-.26,1.51-.06-.09-.14-.11-.06-.17-.22.02-.45.04-.48.34l-.39-.48.05.93c-.42-.18-.63-.31-.65-.85-.17.95-.3.5-.4,1.4l-.18-.35c-.16.11-.15.73-.42.51-.76-.42-1.9,1.03-3.22,1.01.79.88-.72-.18-.29.62-.2-.2-.41-.25-.38-.55-.04.07-.09.12-.14.16-.04.03-.05.03-.08.04-.05.01-.1,0-.14,0-.09,0-.12.03-.09.46-.1-.26-.08-.43-.15-.58,0,.07.01.27-.05.12-.06-.16-.03-.25-.05-.38-.1.11,0,1.05.08,1.93-.23-.3-.25-.23-.4.47-.07-.26-.13-.54.05-.76-.13.04-.52-.13-.71.73,0-.2-.14.03-.2.15-.25.11-.24.03-.52.27v.11c-.39.95-.38.67-.47.62,0-.08,0-.15-.03-.18l.05-.11c.11-.7.06-.64,0-.63-.05.03-.11,0,.06-.65l-.34.61c-.38.61-.31.25-.18-.19.13-.44.33-.92.13-.9l-.19.38c-.16.07.08-.41.39-.86.31-.46.69-.89.73-.97.07-.08.13-.07.19-.1.47-.64-.54.43-.73.28.29-.24.77-.49.8-.62.24-.16-1.08.23-.58-.45-.23.16-.46.32-.7.14-.18-.33.72-1.19-.15-1.31.06-.06.12-.1.18-.11-.27-.22-.56-.79-1.03-.85,1.55-.65-1.2-1.48.29-1.84l-.28-.81.16-.02c-.03-.55-.43-.65-.84-.75.07-.15.23-.09.31-.1.11-.85.03-.91-.87-1.37l.46-.19c-.32-.11.48-1.3-.27-1.92.06,0,.15-.01.24.03-.78-.71.83-2.37-1-2.25l-.57-.46c.04.76-.79.08-1,.45-.17-.26.35-.87.52-.54l-.07.08c.95-.1.1-.99.73-1.12-.4-1.42-.24-2.95-.53-4.3l-.67.33-.07-.48c.14-.16.51-.3.57.04.36-.28-.48-.48-.63-.45.13-.73.89.05.86-.15l-.12-.26-.07.08c-.34-.15-.66-.09-.72-.5.08-.29.41-.24.41-.35.05-.01.07-.05-.02-.16l-.09-.61-.5.37c-.34-.19-.11-.56-.68-.13.88-.64-.19-2.29.05-2.61-.5-.27-.58-.63-.64-1.09-.09.14-.7.36-.72-.04,1.34-.18.39-.85,1.25-1.39-.55.43-.42-1.06-1.2-.41.03-.35.48-.14.73-.46-.69-.64-.09-1.77-.49-2.68-.17.03-.4.25-.7.11l.73-.71c-.13-.17-1.03.07-.52-.42-.13.08-.33.21-.42.1.37-2.06-1.62-3.63-.52-5.9-.27.34-.34.18-.4-.02-.05.15-.42.1-.65.18l.45-.95c-.68.01-.25-.84-.89-.77l.17.22c-.81-.15-1.5.86-2.44,1.04.92.17-.98,1.28.35,1.6-.16.18-.33-.04-.53.08.44.06.57.22.47.61h-.11c.34.94.05,1.45.06,2.61l.44-.19c0,.25-.14.34-.22.47.76.1-.12-.67.71-.61-.86.54.4,1.66-.62,2.14.08.36.51-.24.59.13l-.26.17h.39c0,.25-.33.46-.57.53.01-.06-.11-.15-.14-.2-.26.39.33.84.25.97l.09-.39c.51.92.43,2.22,1.25,3.03l.2-.13c.58.63-.09.64.29,1.4l-.06-.02c.26.11.42.29.45.52-.3-.14-.4.5-.75.31.63.68.43.31,1.37.63l-.33.21c.37.1.54.07.74.45-.39-.25-.49.39-.98.12-.58,1.03,1.1,1.05.05,1.72,1.09.14.37-.86.64-.7.28-.26.82.13.79.42.04.27-1.16.77-.98,1.44-.01-.07-.09-.05-.1-.12-.19.31.47.41.13.82.65.02.06.41.85.27l-.33-.57c.29.3,1.27.41.97,1.09-.17,0-.41-.13-.56-.22-.18.22.23.29.04.52-.78.14-.35-.71-1.03-.94-.28.26.73.57-.15.59,1.13,0,.03.7.95.95l-.47.08c.09.05.34.15.37.29l-.66-.09c.6.24-.27.82.1,1.11-.2-.74.51-.3.77-.7.84.76-1.08.82-.6,1.79-.1-.12.15-.59.42-.42-.05.22-.16.52-.37.7.26.65.45-.22.8,0-.5.37.31.28.56.53l-.47.12c-.11.85,1.03-.04.84.75l-.72-.13.26.32-.55.06c.49.3.42.45.37.87.31-.17.86-.16.96.18-.22.3-.48-.02-.29.45-.32-.04-.72-.07-.34-.38-.16.02-.32-.04-.48-.02-.26.33.08.65.13.83,0-.07,0-.16.06-.22l.82.54c-.15.15-.31.1-.47.05.09.13.33.18.42.38-.39.04-.78.15-1.04-.1l.59.57c-.15.09-.37.46-.53.4-.13.43.96.73.79,1.3.08,0,.16.04.24.13.03.48-.34,1.01.32,1.43l-.61.48c.26.39.76-.63,1.19.02.34.45-.54.33-.68.56.41.17,1.21.43.77,1.04-.17-.12-.1-.27-.18-.4Zm1.73,5.69c-.13-.11-.51-.33-.27-.55.57-.01.35.2.27.55Zm6.63,2.32c-.05.22-.21.22-.38.11.1-.11.22-.16.38-.11Zm18.35-15.04s0,.02,0,.03c-.3-.04-.19-.02,0-.03Zm.53-.07c0-.08-.03-.14-.08-.19.03.12-.06.19-.18.22.1.09.19.13.26-.04Zm-26.6-8.79l-.1.12c-.19-.18-.05-.15.1-.12Z"/>
      <path class="cls-1" d="m85.83,136.92c-.04-.07-.05-.17-.06-.27-.05.12-.05.24.06.27Z"/>
      <path class="cls-1" d="m77.42,124.29s0-.01,0-.02c-.03,0-.06,0-.09,0h.09Z"/>
      <path class="cls-1" d="m101.34,127.86c-.12,0-.22-.05-.3-.11.06.1.15.17.3.11Z"/>
      <path class="cls-1" d="m107.52,118.38l-.2.27c.12-.1.22-.04.32-.01-.06-.09-.2-.2-.12-.26Z"/>
      <path class="cls-1" d="m111.4,119.53c0-.07.08-.06.09-.13l-.13-.19c-.16.11-.18.34.04.32Z"/>
      <path class="cls-1" d="m108.6,119.6c.23.33.33.11.48-.06-.01,0-.02.02-.03.02-.24-.52-.34-.24-.44.04Z"/>
      <path class="cls-1" d="m109.11,119.5c.05-.05.1-.1.17-.11-.1-.21-.1,0-.17.11Z"/>
      <path class="cls-1" d="m106.11,119.88c.14.04-.21-.48-.08-.37-.17-.5-.27.9.08.37Z"/>
      <polygon class="cls-1" points="109.44 120.65 109.12 120.27 109.22 120.68 109.44 120.65"/>
      <path class="cls-1" d="m107.77,121.24l.37-.06c-.05-.07-.04-.13,0-.2-.19.1-.45.14-.36.26Z"/>
      <path class="cls-1" d="m108.13,120.98c.1-.05.19-.11.2-.22-.05.04-.15.12-.2.22Z"/>
      <polygon class="cls-1" points="109.11 121.03 108.97 121 108.74 121.09 109.11 121.03"/>
      <path class="cls-1" d="m104.48,123.11l-.25.32c.06.17.2.2.29.07.02-.15.1-.28-.03-.39Z"/>
      <path class="cls-1" d="m106.19,123.69c-.14-.04-.21-.13-.34-.24l.31.54.03-.3Z"/>
      <path class="cls-1" d="m105.31,124.39c.06.17-.22.71.18.43-.06-.17.2-.49-.18-.43Z"/>
      <polygon class="cls-1" points="99.95 126.71 100.03 126.65 99.49 125.79 99.95 126.71"/>
      <path class="cls-1" d="m96.86,131.43c.52-.03-.23-.59.28-.55-.03-.26-.42-.04-.43-.27-.1.36-.3.31.15.82Z"/>
      <path class="cls-1" d="m96.7,130.61c.02-.06.03-.12.04-.2-.04.1-.04.16-.04.2Z"/>
      <polygon class="cls-1" points="75.34 94.19 75.48 93.86 75.19 94.12 75.34 94.19"/>
      <path class="cls-1" d="m74.48,93.83l.61-.22-.61-.03c.04.06.13.17,0,.25Z"/>
      <path class="cls-1" d="m79.38,135.31l.15-.06c.13-.19.11-.32.07-.58l-.22.64Z"/>
      <polygon class="cls-1" points="78.54 129.89 78.54 129.96 79.08 129.69 78.54 129.89"/>
      <path class="cls-1" d="m77.01,126.84c0,.14.17.26.18.4-.17-.26.52-.61-.18-.4Z"/>
    </g>
  </g>
  <g id="txt">
    <g>
      <path class="cls-1" d="m.24,2.94c-.25-.06-.2.36-.24.43.43-.05.25-.54.24-.43Z"/>
      <polygon class="cls-1" points="4.84 2.6 4.73 2.75 5.46 2.44 4.84 2.6"/>
      <path class="cls-1" d="m9.05,3.31c-.27-.78-1.55-.16-2.25-.53l-.1-.18-.43.51c.92.06,2.17-.11,2.78.2Z"/>
      <path class="cls-1" d="m10.99,5.25c-.08-.3.53-.14-.5-.19.04.04.06.06.08.09.09.01.21.04.42.1Z"/>
      <path class="cls-1" d="m10.57,5.15c-.44-.07.24.29,0,0h0Z"/>
      <path class="cls-1" d="m12.62,5.4l-.63.12c.09.19.59.33.38.41.62-.01.53-.2.25-.53Z"/>
      <path class="cls-1" d="m13.28,5l-.32.04c.04.08.11.12.32-.04Z"/>
      <path class="cls-1" d="m12.28,5.13l.68-.08c-.06-.13-.02-.36-.31.02.09-.2-.07-.02-.37.07Z"/>
      <path class="cls-1" d="m11.94,4.95c-.29-.22-.69-.39-.06-.52-1.13-.12-1.06.4.06.52Z"/>
      <path class="cls-1" d="m9.4,2.62l-.4-.29-.42.17c.21-.09.81.34.82.12Z"/>
      <path class="cls-1" d="m16.12,6.54c.07-.14-.1-.44-.1-.64l-.46.08c.2.15.59.34.57.56Z"/>
      <path class="cls-1" d="m16.02,5.9l.69-.11c-.56-.16-.69-.07-.69.11Z"/>
      <polygon class="cls-1" points="13.54 4.25 12.38 4.57 13.75 4.28 13.54 4.25"/>
      <polygon class="cls-1" points="18.53 7.13 18.09 7.38 18.85 7.02 18.53 7.13"/>
      <path class="cls-1" d="m20.14,7.46c-.33.21.24.57-.08.67.44.06.87-.08,1.26-.22-.38.03-.75-.1-1.18-.46Z"/>
      <path class="cls-1" d="m21.96,7.75c-.19.02-.41.09-.64.17.2-.02.41-.06.64-.17Z"/>
      <path class="cls-1" d="m17.78,6.12c.03.1.07.35.4.54l-.15-.48c-.08-.02-.16-.04-.25-.06Z"/>
      <path class="cls-1" d="m18.02,6.17v.02c.27.08.46.13.54.16-.07-.02-.23-.07-.54-.17Z"/>
      <path class="cls-1" d="m17.72,6.1s.04.01.06.02c-.01-.05-.03-.06-.06-.02Z"/>
      <path class="cls-1" d="m15.14,4.99c.43-.15,1.27-.23.59-.75-.33.23.06.52-.59.75Z"/>
      <path class="cls-1" d="m17.53,5.51l-.65-.25c-.01.11.07.3-.14.37l.79-.12Z"/>
      <polygon class="cls-1" points="17.89 5.45 17.53 5.51 17.77 5.6 17.89 5.45"/>
      <path class="cls-1" d="m20.92,7.06c.34-.1.66-.04,1.02.03-.36-.18-.75-.33-1.12-.43-.09.12-.31.31.1.4Z"/>
      <path class="cls-1" d="m19.52,6.59s.05,0,.07,0c-.03-.04-.06-.06-.07,0Z"/>
      <polygon class="cls-1" points="25.45 8.06 25.41 7.97 25.38 8.03 25.45 8.06"/>
      <path class="cls-1" d="m20.77,6.57c-.27-.16-.47-.1-.66-.01.23.01.46.05.71.1.04-.05.05-.09-.04-.09Z"/>
      <path class="cls-1" d="m22.99,7.82c-.13-.13-.28-.25-.44-.36.11.17.35.46.44.36Z"/>
      <path class="cls-1" d="m19.66,6.72s-.03,0-.05,0c.07.11.07.07.05,0Z"/>
      <path class="cls-1" d="m19.66,6.72c.16-.02.31-.1.45-.16-.18-.01-.36,0-.52.02.03.04.05.09.07.14Z"/>
      <path class="cls-1" d="m27.28,5.73c-.16.36-1.03.5-1.57-.1-.73.1-.66,1.47-.3,2.34.07-.16.11-.31.84-.35-.17-.27-1.33-.91-.67-1.09.93.06.68.34,1.05.67-.23-.58,1.32-.36,1.34-1.11l-.85.02c.02-.11.35-.2.16-.36Z"/>
      <path class="cls-1" d="m24.17,7.57l-.28-.03c.29.15.47.37.79.78.5-.06.64-.17.7-.29l-1.32-.43.11-.03Z"/>
      <path class="cls-1" d="m22.67,7.21c.32-.36,1.03-.35.75-.92-.81-.19-.66.19-1.18.25,1.32.24-.43.13.44.62-.27,0-.51-.03-.73-.07.22.11.43.23.62.36,0-.01-.01-.02-.02-.03h0s0,0,0,0c-.04-.07-.05-.1,0-.06,0,0,.02,0,.03,0,.02-.06.06-.1.1-.14.35.19.03.12-.1.14,0,.02-.02.04-.03.06h0s1.35.13,1.35.13c-.26-.13-.6-.21-1.22-.33Z"/>
      <path class="cls-1" d="m16.63,3.49s.02.08.02.11c.1-.03.14-.06-.02-.11Z"/>
      <path class="cls-1" d="m17.12,3.87c-.11.04-.23.19-.53.07-.24-.19.05-.2.06-.34-.21.07-.73.15-.18.49l.11-.04c.5.27,1.05.95.95.99-.07-.41-.14-.71-.41-1.17Z"/>
      <path class="cls-1" d="m19.98,5.42l1.14.07-.46-.5-.03.22c-.6-.24-.53.06-.65.21Z"/>
      <polygon class="cls-1" points="25.51 8.3 25.25 8.7 26.04 8.26 25.51 8.3"/>
      <polygon class="cls-1" points="26.91 8.65 26.75 9.01 27.18 8.89 26.91 8.65"/>
      <path class="cls-1" d="m93.75,53.55l.23.27c-.09-.14-.17-.22-.23-.27Z"/>
      <path class="cls-1" d="m92.73,51.28l-.2.03c.15.06.24.07.2-.03Z"/>
      <path class="cls-1" d="m59.24,22.67c.21.56.34,1.33.53.92l.11-.44c-.32-.11-.51-.28-.64-.48Z"/>
      <path class="cls-1" d="m79.66,36.02c0-.06,0-.13,0-.19-.19.01-.36.02-.52.04.16.05.33.1.52.16Z"/>
      <path class="cls-1" d="m81.22,35.08l.22.67c-.02-.17-.09-.39-.22-.67Z"/>
      <path class="cls-1" d="m98.29,66.38l.52.3c-.14-.62-.3-.3-.52-.3Z"/>
      <path class="cls-1" d="m40.92,13.36c.32.31.59.5.85.63-.36-.42-.59-.91-.85-.63Z"/>
      <path class="cls-1" d="m89.15,54.55c.15.15.27.19.36.14-.15-.15-.28-.22-.36-.14Z"/>
      <path class="cls-1" d="m42.85,14.44c-.05-.07-.11-.12-.16-.18-.3-.05-.61-.11-.93-.27.27.31.61.57,1.09.45Z"/>
      <path class="cls-1" d="m94.01,114.56s-.05.07-.08.09c.05.03.07-.02.08-.09Z"/>
      <path class="cls-1" d="m85.09,126.06c.03-.13.11-.34.19-.53-.07.08-.13.24-.19.53Z"/>
      <path class="cls-1" d="m32.39,10.58c-.3-.07-.06.03,0,0h0Z"/>
      <path class="cls-1" d="m31.51,8.49c.08-.03.14-.07.18-.16-.06.09-.12.14-.18.16Z"/>
      <path class="cls-1" d="m46.75,13.19h.02c-.05-.1-.04-.08-.02,0Z"/>
      <path class="cls-1" d="m32.02,10.25c.09.09.2.17.33.25-.05-.05-.15-.13-.33-.25Z"/>
      <path class="cls-1" d="m32.01,10.46c-.1-.05-.17-.09-.24-.12-.06.06-.04.11.24.12Z"/>
      <path class="cls-1" d="m32.8,10.7c-.17-.05-.32-.12-.45-.2.05.05.06.08.04.09.09.02.21.06.41.12Z"/>
      <path class="cls-1" d="m98.06,89.02s-.03.04-.05.06c.15.33.14.19.05-.06Z"/>
      <path class="cls-1" d="m68.46,23.44s-.03,0-.04,0c0,.01.02.03.03.04v-.04Z"/>
      <path class="cls-1" d="m69.56,23.87c-.71.14-.89-.09-1.12-.39l-.44,1.23,1.56-.84Z"/>
      <path class="cls-1" d="m95.97,59.08l.1-.9c.93.73.95,1.49,1.22.58-1.33.32-1.16-3.01-2.51-2.62l.07-.6c.05.15.13.14.17.29.21-1.21-1.2-.36-1.52-1.67-.07-.47-.03-.85.25-.62l-.74-.81c-.1-.28.14-.32.25-.03l-.77-1.39h.04c-.29-.12-.8-.44-1.03-.6-.01-.44.22.11.32-.05l-.7-.62c.14-.47.8,0,1.02.57.84-1.34-.64-.49-.77-2.43l.54.66c.42-.84-.12-1.29-.17-2.36-.09.32-.16,2.26-.91,1.58-.04-.28-.15-.63-.66-.93.42-.24.06-.62-.29-1.15l.57-.29c-.51-.5-.76-.28-1.21-.47-.33-.68,0-1.08.25-1.46-.59-1.07-.2,1.13-1.1,0-.36-.97-.95-1.44-1.96-2.19-.24-.69.39-.13.39-.44l-.78-.21c-.08-.13.08-.18.15-.21-.47-.31-.54.34-1.17-.21-.35.12-.39-.37-.5-.94-.12-.56-.34-1.19-.97-1.33-.02-.31.38-.15.53-.37-1.3-.75-1.04-.71-2.33-1.11l-.33-1c.11.85-.92.54-1.78.27,0,.34-.02.64,0,.81l-1.08-.7c-.02-.18.22-.24.55-.27-.1-.03-.19-.05-.26-.07-.14-.48.3-.57.78-.57,0,.2.01.41,0,.61.49-.03,1.01-.1,1.24-.4-.11-.01-.26-.09-.4-.2.13,0,.24-.03.26-.1.02-.08-.17-.08-.43-.13l.33-.7-.25.14-.84-1.51c-1.34-.38-2.82-.35-4.37-1.41.69-.06.66-.55,1.1-.99-.08.83,1.25.81,1.87,1.59-.32-.41-.03-.54.14-.52l-1.68-.79c.38-.34,0-.53-.2-1-.42.96-1.41-.39-2.15-.63.19-.28.55-.43,1.14.21-.22-1.2-1.71.06-1.98-1.04.16.13.21.25.39.17-.56-.11-1.33-1.06-.93-1.1l.17.13c-.5-.49-1.33-1.17-2.12-1.66-.8-.47-1.56-.74-1.9-.47.06-.1.77-.7.94-.79-1.25.25-2.46.5-3.7.81.61-.46.94-2.36,2.13-2.02-.21-.28-.48-.62-1.21-.82.13.22-.15,1.19-.44,1.06-.22-1.16-.23-.7-.69-1.88.19.33-.77,1.04-1.19.72.17-.09.6-.96.83-.95l-1.74.19c.39.02.58-.76.5-1.19,0,.26-.96-.67-1.32-.76l.34.53c-1.19-.96-2.11.54-3.34-.3.27-.1,1.13-.98.55-1.51-.6.31-2.75,1.6-4.08,1.33l-.05-.41-1.05-.15c.96-.48,3.39-1.16,4.6-1.28-.36-.51.06-.41-.69-.82-.11-.42.64-.17.87-.06l-1.63-1.18c-.25.62-1.66-.15-1.87.38.74.14,1.48.28,2.22.45-.26.62-2.02,1.03-3.18.27-.18-.41.81-.92.89-1.13-.27.11-1.38-.25-1.41-.46l.69-.03c-.57-.61-1.54.19-2.07-.81-.27-.19-.47-1.22-.7-.89.13.93-.87,3.08-1.44,3.44-.07-.1-1.15-1.41-1.31-1.9-.21-.77,1.34-.94,1.17-1.6-.1.16-.46.23-.6.24-.24-.29.38-.45-.32-.7-.41.56-1.32-.71-.56.37-.73-.14-.62-.46-1.41-.79.06.51-1.32,1.05-2.04.93.11-.14.06-.41.03-.54-1.3-.65-1.91-1.24-3.16-1.78-.05-.2-.59-.63-.21-.8-.23.04-.48.18-.88.04-.53-.85.91.27.6-.62-.2.35-1.22.09-1.87.1-.05.64,1.24.63,1.89.63-.32.78-1.62,1.2-3.07,1.04-1.12-.21-.26-.68-.48-.64-1.92-.9-2.19.74-3.62-.43-.47-.74.33-1.02.32-1.43.93.12,1.21.8,1.8,1l-.63-.5c.34-.07.96.01,1.22.28-.38-.67-3.33-1.33-4.74-2.27-.33.08-.87.09-.71.37l.51.1c.31.56-1.11.25-.56.66-.75.06-1.64.29-2.48-.25v-.64c-.02.18.51.54.82.45-.47.14-1.17-1.26-1.83-.62l.52.61c-.75.08-1.76.46-2.52.02.2.69.21,0,.58.85-.24-1,2.08.68,1.55-.45.35.97.92.67,1.48,1.58.04-.2-.15-.46.5-.14.05-.05.15-.09.21-.12.02.01.03.02.04.03l-.03-.03s.04-.02-.01-.01c-.13-.14-.23-.28-.25-.4.49-.34,1.56.05,2.01-.05.37.23-.24.16-.09.44l.66-.15c-.09.44.82,1.07-.21.99l.84.32c.41.42,1.06.76,1.55.74.36.24,1.18-.1.71.1l1.42.25-.03.11c1.28.54,2.95.37,4.11,1.72.47.08.97.15,1.64.57l-.02.42c.61.11,1.49,1.09,1.89.83.16,1.21,2.53,1.43,3.4,2.07l.26-.44c.64.34,1.32.54,2.22.77l.16-.42c.87.02,1.63,1.21,2.72,1.77-.16.11-.41-.08-.55-.28.8,1.57,3.07.89,3.85,2.2.37.02.54.21.68.42-.03-.02-.05-.02-.08-.02.03.02.07.05.11.08.08.14.16.3.27.45-.06-.17-.13-.31-.2-.41.22.13.58.29.96.39l-.12.49s.05.02.08.03c.22.35.38-.03.4-.45.21.03.41.05.58.02-.16.81.99.32.88,1.25.44-.2,1.76.81,2.41.22-.05.1.01.21-.16.1.3.32.59.65,1.04.68l-.21.6,1.24-.13c.24.63.3.94-.43,1,1.53.21,1.04.43,2.39.56l-.29.28c.34.24,1.19.22,1.18.63.13.58.99,1.33,1.99,2.18.98.88,2.11,1.87,2.72,2.93.47-1.16.43,1.13,1.12.54-.09.29.03.63-.41.54,1.06.62.96,1.56,2.08,1.62-.1.29-.47.1-.5.3.11.03.43.11.4.31-.03.2-.29.03-.5-.02.87.83,1.58.34,2.22-.13.15.71.38.91,1.08.9-.05.34-.01.79-.59.28.26.35,1.45,2.2,1.94,1.84-.04.21.34.5.47.54.58.78.59.87,1.23,1.58l-.08-.27c.84-.18.61.53,1.14,1.09l-.08.03c.58,1.75.7.44,1.15,2.23l.34-.35c.94-.44.35,1.62,1.23,2.23l.03-.45c.62.27-.4,2.05-.23,2.57-.02.15-.22-.09-.36-.19.2,1.52.63-.17,1.3.67-.19.34-.87.22-.57.85-.07.43,1.93,1.29,1.81,2.45.13-.31.26-.61.67-.27.43.65-.03,2.27,1.01,2.54-.02.12-.07.18-.13.21.46.43,1.04,1.59,1.6,1.75-.68.56-.13,1.3.35,2.02.47.71.95,1.37.22,1.61.21.55.46,1.1.64,1.66h-.16c.21,1.12.67,1.4,1.14,1.7-.03.28-.22.13-.3.13.18,1.68.2,1.82,1.28,3.02l-.45.25c.17.16.14.78.12,1.56-.03.78,0,1.69.43,2.45-.06,0-.16-.03-.25-.14.47.85.22,2,.15,2.96-.08.96-.01,1.75.89,2.02l.52,1.19c.04-1.6.8.18,1.05-.49.15.63-.44,1.66-.58.9l.08-.13c-.96-.22-.2,1.99-.85,1.97.12,3.11-.43,6.12-.7,9l.76-.28-.13,1.01c-.19.25-.6.31-.51-.41-.44.34.25,1.24.4,1.27-.41,1.39-.8-.63-.86-.2v.59s.1-.12.1-.12c.25.5.58.58.45,1.44-.22.53-.48.23-.54.44-.05,0-.08.06-.06.33l-.23,1.26.64-.43c.21.6-.19,1.19.54.69-1.06.74-1.1,4.69-1.51,5.16.29.86.12,1.64-.15,2.58.17-.21.84-.22.58.59-1.24-.58-.9,1.39-1.99,1.83.78-.44-.42,2.36.69,1.65-.28.66-.5-.08-.94.36.08,1.75-1.24,3.48-1.7,5.49.16.08.52-.17.64.33l-1.16.79c-.04.41.86.67.06,1.19.17-.06.43-.14.4.14-1.04,1.8-1.56,3.81-2.18,5.8-.69,1.97-1.41,3.94-2.96,5.53.53-.38.42-.03.26.37.18-.22.4.17.64.21l-1.29,1.34c.49.55-.68,1.72-.18,2.14l.11-.55c.4.97,1.92-.28,2.76.19-.46-1.09,2.02-1.53,1.43-3.25.3-.2.19.35.45.29-.25-.47-.18-.9.27-1.55l.06.12c.67-2.07,1.44-2.77,2.5-5h-.51c.23-.46.41-.52.6-.71-.48-.81-.52,1.38-1.09.6,1.14-.34,1.22-3.49,2.42-3.59.27-.77-.59.06-.34-.71l.34-.11-.3-.31c.21-.49.65-.63.89-.58-.07.11-.04.37-.06.51.54-.56.46-1.9.63-2.1l-.4.69c.18-1.1.6-2.26.9-3.45.3-1.19.56-2.38.54-3.48l-.26.1c.02-1.67.55-1.21.76-3l.04.08c-.14-.4-.15-.89-.02-1.36.16.5.68-.73.84-.09-.06-1.82-.14-.93-.75-2.23l.41-.2c-.26-.45-.43-.52-.37-1.41.19.78.66-.46.93.42,1.13-1.73-.32-2.88.95-3.56-.91-1-.77,1.53-.93,1.02-.39.35-.66-.82-.49-1.38.1-.59,1.43-.83,1.61-2.34-.02.15.05.17.03.32.33-.54-.2-1.14.27-1.79-.59-.45.11-.9-.67-1.08l.07,1.4c-.14-.81-1-1.62-.45-2.86.15.11.33.51.42.78.26-.36-.09-.74.18-1.11.78.17.03,1.69.56,2.59.37-.38-.44-1.65.38-1.15-1.04-.7.28-1.49-.5-2.57l.47.09c-.07-.17-.28-.52-.26-.82l.6.58c-.49-.86.52-1.6.26-2.42-.04,1.69-.58.36-.96,1.06-.59-2.08,1.34-1.15,1.08-3.5.07.32-.27,1.19-.5.69.09-.44.27-1.03.51-1.31-.12-1.55-.48.24-.79-.41.57-.54-.25-.75-.44-1.42l.48-.02c.24-1.77-1.02-.42-.74-2.01l.71.63-.23-.81.56.14c-.47-.87-.38-1.16-.28-2.05-.33.23-.86-.04-.97-.81.22-.55.49.25.29-.84.33.21.74.45.35.97.16.03.33.22.49.25.26-.6-.09-1.45-.14-1.85,0,.16,0,.34-.06.45l-.85-1.51c.15-.27.32-.1.48.08-.09-.32-.33-.51-.44-.98.41.07.8-.02,1.07.63-.2-.49-.42-.98-.65-1.46.15-.13.33-.85.51-.68.06-.89-1.06-1.94-1.04-3.1-.09-.04-.18-.14-.29-.36-.16-1.05.15-2.1-.73-3.18l.48-.88c-.42-.91-.59,1.17-1.29-.34-.53-1.05.46-.59.53-1.04-.48-.47-1.51-1.18-1.31-2.37.24.29.23.59.39.88Zm-5.12-11c.2.16.69.43.52.71-.61.02-.48-.28-.52-.71Zm-11.7-13.96c.23.01.36.26.44.6-.18-.13-.34-.32-.44-.6ZM35.68,11.32s.02,0,.03-.01c.4.35.26.22-.03.01Zm-.9-.55c-.12.03-.14.09-.12.17.11-.09.33-.02.57.1-.03-.14-.12-.27-.45-.27Zm59.73,81.23l.15-.18c.08.47-.03.33-.15.18Z"/>
      <path class="cls-1" d="m81.03,35.18c-.02.1-.07.18-.13.25.12.01.19-.05.13-.25Z"/>
      <path class="cls-1" d="m98.19,66.33v.04s.07.02.1.02l-.1-.06Z"/>
      <path class="cls-1" d="m51.38,13.27c.17.16.24.29.27.41.06-.1.02-.23-.27-.41Z"/>
      <path class="cls-1" d="m29.32,9.81l.67.08c-.31-.08-.39-.21-.52-.33-.02.11.05.3-.15.25Z"/>
      <path class="cls-1" d="m24.6,5.31c-.11.03-.2-.05-.31-.02l-.03.22c.41.1.74,0,.35-.21Z"/>
      <path class="cls-1" d="m29.21,8.1c.07-.4-.37-.4-.84-.46.03,0,.05.01.08.02-.3.5.23.47.76.44Z"/>
      <path class="cls-1" d="m28.26,7.62c-.14-.02-.29-.06-.42-.12-.12.2.15.1.42.12Z"/>
      <path class="cls-1" d="m33.45,10.59c-.17-.17-.3.45-.36.25-.4.41,1.59-.11.36-.25Z"/>
      <polygon class="cls-1" points="29.24 6.71 29.25 7.24 29.62 6.93 29.24 6.71"/>
      <path class="cls-1" d="m32.67,8.19l-.67-.36c-.02.08-.12.1-.24.1.44.16.89.41.92.26Z"/>
      <path class="cls-1" d="m31.75,7.93c-.23-.08-.45-.14-.6-.11.13.04.4.11.6.11Z"/>
      <polygon class="cls-1" points="30.27 6.87 30.45 7.03 30.94 7.23 30.27 6.87"/>
      <path class="cls-1" d="m40.24,11.03l.82.17c.14-.13-.03-.31-.34-.36-.23.04-.54,0-.48.19Z"/>
      <path class="cls-1" d="m38.4,8.86c.17.17.15.29.21.49l.24-.57-.45.09Z"/>
      <path class="cls-1" d="m40.71,9.59c.14-.13,1.31-.03.31-.37-.14.13-.97-.04-.31.37Z"/>
      <polygon class="cls-1" points="51.78 15.36 51.59 15.27 51.16 16.19 51.78 15.36"/>
      <path class="cls-1" d="m62.62,18.66c-.72-.74-.53.41-1.14-.33-.32.08.49.6.18.65.64.1.84.39.96-.32Z"/>
      <path class="cls-1" d="m61.66,18.98c-.1-.02-.21-.03-.34-.03.18.04.28.04.34.03Z"/>
      <polygon class="cls-1" points="83.7 127.93 83.27 128.42 83.74 128.19 83.7 127.93"/>
      <path class="cls-1" d="m83.93,129.33l-.65-.13.39.58c.03-.14.08-.41.26-.45Z"/>
      <path class="cls-1" d="m91.09,45.86l-.16.04c-.09.17-.03.31.11.59l.05-.62Z"/>
      <polygon class="cls-1" points="94.65 54.06 94.6 53.92 94.17 54.41 94.65 54.06"/>
      <path class="cls-1" d="m97.86,60.89c-.06-.3-.29-.61-.35-.92.29.62-.33,1.2.35.92Z"/>
    </g>
  </g>
</svg>